<svg width="149" height="10" viewBox="0 0 149 10" fill="none" xmlns="http://www.w3.org/2000/svg">
<path d="M1.23438 8.4537C4.34234 7.16503 6.66126 5.50162 10.0906 5.50162C13.2944 5.50162 16.3754 7.59979 19.5373 8.3225C22.356 8.96678 26.1543 8.59944 28.8527 7.73208C31.5597 6.86197 35.0779 4.47425 37.8401 4.32079C41.2424 4.13178 44.5459 4.41387 47.8772 5.04241C51.9467 5.81024 56.3185 8.30227 60.4071 8.4537C66.6656 8.6855 72.1183 6.57451 77.726 4.02559C79.9984 2.99267 85.3877 3.34543 87.7302 4.05839C91.499 5.20541 94.963 7.11529 98.7185 8.15849C106.237 10.2471 110.154 3.43784 116.661 1.99193C119.238 1.41924 122.875 0.995118 125.517 1.40152C127.876 1.76452 129.579 3.73038 132.011 3.73038C136.943 3.73038 143.034 4.68123 147.657 3.13996" stroke="#F2A78C" stroke-width="2" stroke-linecap="round"/>
</svg>
