<svg width="34" height="37" viewBox="0 0 34 37" fill="none" xmlns="http://www.w3.org/2000/svg">
<g clip-path="url(#clip0_1_352)">
<path d="M32.7772 23.2964C32.6486 23.0784 32.5199 22.8604 32.3912 22.6424C32.5842 22.2063 32.7772 21.7392 32.9381 21.3343C33.0989 20.9606 33.1954 20.5868 33.2919 20.2131C33.5492 19.123 33.6779 18.0018 33.7744 16.8806C33.8066 16.4757 33.8066 16.0708 33.7744 15.6659C33.6779 14.2333 33.5171 12.6449 32.9702 11.2434C32.4234 9.87301 31.8766 8.44035 30.9759 7.25685C30.3648 6.47823 29.6893 5.51274 28.9173 4.76527C28.1453 3.98665 27.1159 3.30146 26.2796 2.70971C25.0573 1.83766 23.6098 1.33934 22.1945 0.809882C21.8406 0.685303 21.4868 0.560724 21.1008 0.498434C20.9078 0.46729 20.747 0.436145 20.554 0.405C19.5568 0.249276 18.5596 0.0935522 17.5625 0.0312626C17.1765 0.000117857 16.8227 0.000117857 16.4367 0.0312626C15.2465 0.124697 14.0563 0.249276 12.8983 0.498434C12.5445 0.560724 12.1907 0.685303 11.869 0.809882C10.7754 1.21476 9.68169 1.61965 8.65236 2.14911C7.3657 2.86544 6.14337 3.76864 5.08188 4.79641C4.05255 5.82419 3.08755 6.97655 2.37989 8.22234C1.83306 9.18783 1.44706 10.2156 1.0289 11.2434C0.900232 11.586 0.771565 11.9597 0.675066 12.3335C0.642899 12.5203 0.610733 12.7072 0.578566 12.8941C0.4499 13.8284 0.289068 14.7627 0.192568 15.6659C0.160402 16.0708 0.160402 16.4757 0.192568 16.8806C0.289068 18.0641 0.417734 19.2476 0.739399 20.4C0.932398 21.1474 1.28623 21.926 1.60789 22.6424C1.44706 22.8604 1.28623 23.1095 1.15756 23.3587C0.482067 24.3865 0.128235 25.4765 0.0639022 26.6601C-0.0969303 27.8747 -0.0325973 29.0582 0.321234 30.2106C0.642899 30.9269 0.932398 31.6121 1.25406 32.3284C2.05823 33.6676 3.15189 34.7266 4.53505 35.5052C4.69588 35.5986 4.88888 35.6609 5.04971 35.7543C6.11121 36.4084 7.23703 36.751 8.45936 36.8132C9.68169 37.0624 10.904 37.0313 12.1263 36.6575C12.8662 36.3461 13.5738 36.0658 14.3137 35.7543C15.4073 35.1314 16.308 34.3528 17.0478 33.3873C17.5303 34.0102 18.1093 34.5397 18.7848 34.9757C19.6855 35.7543 20.7148 36.2838 21.905 36.5641C22.7091 36.6575 23.5455 36.7821 24.3496 36.8755C25.9901 36.8755 27.5341 36.4707 28.9816 35.6609C29.1424 35.5675 29.3354 35.474 29.4963 35.4117C30.5578 34.8511 31.4262 34.1037 32.0696 33.1382C32.8737 32.2661 33.4206 31.2695 33.7101 30.1171C33.8066 29.3385 33.9352 28.5287 34.0317 27.7501C33.9996 26.1617 33.5814 24.6668 32.7772 23.2964Z" fill="#F8DE52"/>
<path d="M18.3349 23.4522C21.9054 22.8293 24.6074 19.8394 24.6074 16.2266C24.6074 12.1778 21.1978 8.87643 17.0161 8.87643C12.8345 8.87643 9.42481 12.1778 9.42481 16.2266C9.42481 19.8394 12.1268 22.8604 15.6973 23.4522C12.931 23.8571 10.4863 25.4455 9.16748 27.8748L9.68214 28.1239C11.1296 25.5389 13.9281 23.9194 17.0483 23.9194C20.1041 23.9194 22.9026 25.5077 24.3501 28.0305L24.8647 27.7813C23.5137 25.4143 21.0691 23.8571 18.3349 23.4522ZM17.0161 23.0162C13.1561 23.0162 10.0038 19.964 10.0038 16.2266C10.0038 12.4892 13.1561 9.43704 17.0161 9.43704C20.8761 9.43704 24.0284 12.4892 24.0284 16.2266C24.0284 19.964 20.9083 23.0162 17.0161 23.0162Z" fill="#160919"/>
</g>
<defs>
<clipPath id="clip0_1_352">
<rect width="34" height="37" fill="white"/>
</clipPath>
</defs>
</svg>
