<svg width="59" height="31" viewBox="0 0 59 31" fill="none" xmlns="http://www.w3.org/2000/svg">
<g clip-path="url(#clip0_1_338)">
<path d="M5.37781 31.0002C2.26024 31.0002 0 27.9878 0 23.5514C0 17.0338 4.07882 13.5011 9.01497 13.5011C9.7424 13.5011 10.4958 13.5558 11.1973 13.6654L11.0674 5.83322H15.5099C15.0942 14.0762 15.1202 22.3739 15.5099 30.6168H12.5222L11.4051 26.4269L10.236 28.0426C8.80713 29.9595 7.30031 31.0002 5.37781 31.0002ZM11.2492 16.4587C10.236 15.0894 8.96301 14.4048 7.58609 14.4048C5.06605 14.4048 3.87098 17.0064 3.87098 20.2378C3.87098 24.8385 5.8974 27.933 8.05372 27.933C9.8723 27.933 11.2233 26.5364 11.2233 23.3871V16.4587H11.2492Z" fill="black"/>
<path d="M19.5113 13.8841H23.9798C23.5641 19.4433 23.642 25.0298 23.9798 30.6164H19.5113C19.849 25.0298 19.901 19.4433 19.5113 13.8841Z" fill="black"/>
<path d="M35.7736 30.6164H33.8251C31.6947 24.8929 29.2786 19.2516 26.4468 13.8841H31.7727C33.2276 18.074 34.8903 22.1544 36.8907 26.0705C38.3715 22.3461 38.9951 18.2657 38.3196 13.8841H43.1258C40.32 19.2789 37.9039 24.8929 35.7736 30.6164Z" fill="black"/>
<path d="M45.4117 13.8841H49.8802C49.4646 19.4433 49.5425 25.0298 49.8802 30.6164H45.4117C45.7495 25.0298 45.7754 19.4433 45.4117 13.8841Z" fill="black"/>
<path d="M54.3504 13.8841H58.8189C58.4033 19.4433 58.4812 25.0298 58.8189 30.6164H54.3504C54.6882 25.0298 54.7401 19.4433 54.3504 13.8841Z" fill="black"/>
<path d="M19.2515 8.81796C19.2515 7.33916 20.3167 6.29852 21.8235 6.29852C23.2524 6.29852 24.2656 7.31177 24.2656 8.68103C24.2656 10.1051 23.2004 11.1731 21.6936 11.1731C20.2647 11.1731 19.2515 10.1872 19.2515 8.81796Z" fill="black"/>
<path d="M45.2048 5.91479C45.2048 4.43599 46.2699 3.39536 47.7768 3.39536C49.2056 3.39536 50.2189 4.40861 50.2189 5.77786C50.2189 7.20189 49.1537 8.26991 47.6469 8.26991C46.218 8.26991 45.2048 7.28405 45.2048 5.91479Z" fill="black"/>
<path d="M54.0117 2.51943C54.0117 1.04064 55.0769 0 56.5837 0C58.0126 0 59.0258 1.01325 59.0258 2.38251C59.0258 3.80654 57.9607 4.87456 56.4538 4.87456C55.025 4.87456 54.0117 3.88869 54.0117 2.51943Z" fill="black"/>
</g>
<defs>
<clipPath id="clip0_1_338">
<rect width="59" height="31" fill="black"/>
</clipPath>
</defs>
</svg>
