<?xml version="1.0" encoding="utf-8"?>
<!-- Generator: Adobe Illustrator 24.2.0, SVG Export Plug-In . SVG Version: 6.00 Build 0)  -->
<svg version="1.1" id="Warstwa_1" xmlns="http://www.w3.org/2000/svg" xmlns:xlink="http://www.w3.org/1999/xlink" x="0px" y="0px"
	 width="470px" height="470px" viewBox="0 0 470 470" enable-background="new 0 0 470 470" xml:space="preserve">
<g id="Group_799" transform="translate(-26.268 -30.951)">
	<g id="Data" transform="translate(20.954 30.951)">
		<g id="Group_798">
			<g id="Group_737" transform="translate(5.314)">
				<g id="Group_730">
					<g id="Group_725" transform="translate(0 78.66)">
						<path id="Path_18729" fill="#3E70AB" d="M6.1,265.9c0,0,0.1-0.1,0.5-0.4l1.4-1l5.4-3.9l20.1-14.7l69.8-50.7l-0.1,0.3
							c-6.1-17-9.2-34.9-9.2-52.9c0-5.9,0.3-11.9,0.9-17.8c0.7-5.7,1.6-11.4,2.9-17.1c2.4-10.7,5.9-21,10.5-30.9
							c13.2-28.2,34.5-51.8,61.2-67.9l5.1-2.9c1.5-0.8,2.8-1.4,3.8-2l2.4-1.2c0.5-0.3,0.8-0.4,0.8-0.4s-0.3,0.2-0.8,0.4
							c-0.5,0.3-1.3,0.7-2.3,1.2c-1,0.6-2.3,1.2-3.8,2l-5,3c-26.5,16.2-47.6,39.8-60.8,68c-4.6,9.9-8.1,20.2-10.4,30.8
							c-1.3,5.6-2.2,11.3-2.9,17c-0.6,5.9-1,11.8-0.9,17.7c0,18,3.1,35.8,9.1,52.7l0.1,0.2l-0.2,0.1l-70,50.5l-20.2,14.5L8,264.6
							l-1.4,1C6.2,265.8,6.1,265.9,6.1,265.9z"/>
					</g>
					<g id="Group_726" transform="translate(35.36 47.088)">
						<path id="Path_18730" fill="#3E70AB" d="M100.6,2.5c0,0-0.2,0.1-0.6,0.3l-1.9,0.9L95,5.2c-1.2,0.6-2.6,1.4-4.1,2.2
							C82.2,12.3,74,18.1,66.5,24.6c-5.2,4.5-10,9.4-14.6,14.6c-5.2,6-9.9,12.3-14.2,18.9C27.9,73.4,20.5,90,15.6,107.5
							c-4.9,17.4-7.8,35.4-8.6,53.5c-0.8,14.8-0.4,29.6,1.1,44.3c0.9,9.9,2.9,19.7,5.8,29.3c1.1,3.4,2,5.9,2.7,7.7
							c0.3,0.9,0.6,1.5,0.8,2c0.2,0.4,0.2,0.7,0.2,0.7s-0.1-0.2-0.3-0.7l-0.8-1.9c-0.7-1.7-1.7-4.3-2.8-7.6c-3-9.5-5-19.4-6-29.3
							c-1.5-14.7-1.9-29.6-1.2-44.4c0.8-18.1,3.7-36.1,8.6-53.6c4.9-17.5,12.4-34.2,22.2-49.4c4.3-6.6,9.1-13,14.3-18.9
							c4.5-5.2,9.4-10.1,14.6-14.6C73.8,17.8,82,12.1,90.8,7.3c1.6-0.8,2.9-1.6,4.2-2.2l3.1-1.5l1.9-0.9
							C100.4,2.5,100.6,2.5,100.6,2.5z"/>
					</g>
					<g id="Group_727" transform="translate(166.592)">
						<path id="Path_18731" fill="#3E70AB" d="M6.1,2.5c0.1,0.1,0.1,0.1,0.1,0.2l0.4,0.6c0.4,0.5,0.8,1.3,1.5,2.3l5.5,8.7l19.1,30.4
							l-0.3-0.1c21.1-5.7,42.9-8.1,64.7-6.9c8.8,0.5,17.5,1.5,26.2,3.1l2.7,0.5l2.5,0.6l4.7,1c2.9,0.8,5.4,1.4,7.4,1.9l4.6,1.4
							l1.2,0.4c0.1,0,0.3,0.1,0.4,0.1c-0.1,0-0.3,0-0.4-0.1l-1.2-0.3l-4.6-1.3c-2-0.5-4.5-1.1-7.4-1.8l-4.7-1l-2.5-0.5l-2.7-0.5
							c-8.6-1.6-17.4-2.6-26.1-3C75.3,37,53.5,39.4,32.5,45l-0.2,0.1l-0.1-0.2c-7.7-12.5-14.2-23-18.9-30.5L7.9,5.6L6.5,3.3L6.2,2.7
							C6.1,2.6,6.1,2.5,6.1,2.5z"/>
					</g>
					<g id="Group_728" transform="translate(378.382 46.454)">
						<path id="Path_18732" fill="#3E70AB" d="M81.2,107.4c-0.1-0.1-0.1-0.2-0.1-0.3l-0.3-1c-0.3-0.9-0.6-2.1-1.1-3.7
							c-0.5-1.6-1-3.6-1.8-5.8c-0.4-1.1-0.8-2.3-1.2-3.6l-0.7-2l-0.8-2c-1.1-2.8-2.2-5.8-3.7-9c-0.7-1.6-1.4-3.3-2.2-4.9L66.6,70
							c-4-7.6-8.5-14.8-13.5-21.8C48,41.3,42.5,34.8,36.5,28.7l-4.1-4.1c-1.3-1.3-2.7-2.5-4-3.7c-2.5-2.4-5.1-4.5-7.3-6.5L19.6,13
							L18,11.7c-1-0.8-2-1.6-3-2.4c-1.8-1.5-3.5-2.7-4.8-3.7L7.1,3.3L6.3,2.7C6.2,2.6,6.1,2.6,6.1,2.5c0.1,0,0.2,0.1,0.3,0.2
							l0.8,0.6l3.1,2.2c1.4,1,3,2.2,4.9,3.6l3,2.3l1.6,1.3l1.7,1.4c2.3,1.9,4.8,4,7.4,6.4c1.3,1.2,2.7,2.4,4,3.7l4.1,4.1
							c6,6.1,11.5,12.7,16.6,19.6c5,7,9.5,14.3,13.5,21.9l2.6,5.2c0.8,1.7,1.5,3.4,2.2,5c1.5,3.2,2.6,6.3,3.6,9.1
							c0.3,0.7,0.5,1.4,0.8,2l0.7,2c0.4,1.3,0.8,2.5,1.2,3.6c0.8,2.2,1.3,4.2,1.7,5.8c0.4,1.6,0.8,2.8,1,3.7c0.1,0.4,0.2,0.7,0.2,1
							C81.1,107.2,81.2,107.3,81.2,107.4z"/>
					</g>
					<g id="Group_729" transform="translate(378.732 283.876)">
						<path id="Path_18733" fill="#3E70AB" d="M38.3,183.7c-0.1-0.1-0.1-0.2-0.2-0.3c-0.1-0.2-0.3-0.5-0.5-1l-1.8-3.7l-6.7-14
							c-5.7-12-13.7-28.9-23-48.5L6.1,116l0.2-0.1c8.7-6.6,16.9-13.8,24.6-21.7c1.3-1.3,2.6-2.7,3.8-4l3.7-4l3.5-4.1
							c1.1-1.4,2.3-2.7,3.4-4.1c2.1-2.8,4.3-5.4,6.2-8.2c1-1.4,2-2.7,2.9-4c0.9-1.4,1.8-2.7,2.7-4.1c6.3-9.5,11.8-19.5,16.6-29.8
							c2.1-4.4,3.7-8.5,5.1-12.1c1.4-3.6,2.5-6.8,3.4-9.3c0.8-2.6,1.5-4.6,1.9-6c0.2-0.7,0.4-1.2,0.5-1.5c0.1-0.3,0.2-0.5,0.2-0.5
							s0,0.2-0.1,0.5c-0.1,0.4-0.3,0.9-0.5,1.6c-0.4,1.4-1,3.4-1.8,6c-0.9,2.6-2,5.7-3.3,9.4c-1.4,3.6-3,7.7-5.1,12.1
							C69.3,42.4,63.7,52.5,57.5,62c-0.9,1.3-1.8,2.7-2.7,4.1l-2.9,4.1c-1.9,2.8-4.1,5.4-6.2,8.2c-1.1,1.4-2.2,2.7-3.4,4.1l-3.5,4.1
							l-3.7,4c-1.2,1.4-2.5,2.7-3.8,4c-7.7,7.8-15.9,15.1-24.6,21.7l0.1-0.3l22.8,48.6c2.8,6,5,10.8,6.6,14.1l1.7,3.8l0.4,1
							C38.3,183.4,38.3,183.5,38.3,183.7z"/>
					</g>
				</g>
				<g id="Group_736" opacity="0.8">
					<g id="Group_731" transform="translate(0 78.66)">
						<path id="Path_18734" fill="#3E70AB" d="M6.1,265.9c0,0,0.1-0.1,0.5-0.4l1.4-1l5.4-3.9l20.1-14.7l69.8-50.7l-0.1,0.3
							c-6.1-17-9.2-34.9-9.2-52.9c0-5.9,0.3-11.9,0.9-17.8c0.7-5.7,1.6-11.4,2.9-17.1c2.4-10.7,5.9-21,10.5-30.9
							c13.2-28.2,34.5-51.8,61.2-67.9l5.1-2.9c1.5-0.8,2.8-1.4,3.8-2l2.4-1.2c0.5-0.3,0.8-0.4,0.8-0.4s-0.3,0.2-0.8,0.4
							c-0.5,0.3-1.3,0.7-2.3,1.2c-1,0.6-2.3,1.2-3.8,2l-5,3c-26.5,16.2-47.6,39.8-60.8,68c-4.6,9.9-8.1,20.2-10.4,30.8
							c-1.3,5.6-2.2,11.3-2.9,17c-0.6,5.9-1,11.8-0.9,17.7c0,18,3.1,35.8,9.1,52.7l0.1,0.2l-0.2,0.1l-70,50.5l-20.2,14.5L8,264.6
							l-1.4,1C6.2,265.8,6.1,265.9,6.1,265.9z"/>
					</g>
					<g id="Group_732" transform="translate(35.36 47.088)">
						<path id="Path_18735" fill="#3E70AB" d="M100.6,2.5c0,0-0.2,0.1-0.6,0.3l-1.9,0.9L95,5.2c-1.2,0.6-2.6,1.4-4.1,2.2
							C82.2,12.3,74,18.1,66.5,24.6c-5.2,4.5-10,9.4-14.6,14.6c-5.2,6-9.9,12.3-14.2,18.9C27.9,73.4,20.5,90,15.6,107.5
							c-4.9,17.4-7.8,35.4-8.6,53.5c-0.8,14.8-0.4,29.6,1.1,44.3c0.9,9.9,2.9,19.7,5.8,29.3c1.1,3.4,2,5.9,2.7,7.7
							c0.3,0.9,0.6,1.5,0.8,2c0.2,0.4,0.2,0.7,0.2,0.7s-0.1-0.2-0.3-0.7l-0.8-1.9c-0.7-1.7-1.7-4.3-2.8-7.6c-3-9.5-5-19.4-6-29.3
							c-1.5-14.7-1.9-29.6-1.2-44.4c0.8-18.1,3.7-36.1,8.6-53.6c4.9-17.5,12.4-34.2,22.2-49.4c4.3-6.6,9.1-13,14.3-18.9
							c4.5-5.2,9.4-10.1,14.6-14.6C73.8,17.8,82,12.1,90.8,7.3c1.6-0.8,2.9-1.6,4.2-2.2l3.1-1.5l1.9-0.9
							C100.4,2.5,100.6,2.5,100.6,2.5z"/>
					</g>
					<g id="Group_733" transform="translate(166.592)">
						<path id="Path_18736" fill="#3E70AB" d="M6.1,2.5c0.1,0.1,0.1,0.1,0.1,0.2l0.4,0.6c0.4,0.5,0.8,1.3,1.5,2.3l5.5,8.7l19.1,30.4
							l-0.3-0.1c21.1-5.7,42.9-8.1,64.7-6.9c8.8,0.5,17.5,1.5,26.2,3.1l2.7,0.5l2.5,0.6l4.7,1c2.9,0.8,5.4,1.4,7.4,1.9l4.6,1.4
							l1.2,0.4c0.1,0,0.3,0.1,0.4,0.1c-0.1,0-0.3,0-0.4-0.1l-1.2-0.3l-4.6-1.3c-2-0.5-4.5-1.1-7.4-1.8l-4.7-1l-2.5-0.5l-2.7-0.5
							c-8.6-1.6-17.4-2.6-26.1-3C75.3,37,53.5,39.4,32.5,45l-0.2,0.1l-0.1-0.2c-7.7-12.5-14.2-23-18.9-30.5L7.9,5.6L6.5,3.3L6.2,2.7
							C6.1,2.6,6.1,2.5,6.1,2.5z"/>
					</g>
					<g id="Group_734" transform="translate(378.382 46.454)">
						<path id="Path_18737" fill="#3E70AB" d="M81.2,107.4c-0.1-0.1-0.1-0.2-0.1-0.3l-0.3-1c-0.3-0.9-0.6-2.1-1.1-3.7
							c-0.5-1.6-1-3.6-1.8-5.8c-0.4-1.1-0.8-2.3-1.2-3.6l-0.7-2l-0.8-2c-1.1-2.8-2.2-5.8-3.7-9c-0.7-1.6-1.4-3.3-2.2-4.9L66.6,70
							c-4-7.6-8.5-14.8-13.5-21.8C48,41.3,42.5,34.8,36.5,28.7l-4.1-4.1c-1.3-1.3-2.7-2.5-4-3.7c-2.5-2.4-5.1-4.5-7.3-6.5L19.6,13
							L18,11.7c-1-0.8-2-1.6-3-2.4c-1.8-1.5-3.5-2.7-4.8-3.7L7.1,3.3L6.3,2.7C6.2,2.6,6.1,2.6,6.1,2.5c0.1,0,0.2,0.1,0.3,0.2
							l0.8,0.6l3.1,2.2c1.4,1,3,2.2,4.9,3.6l3,2.3l1.6,1.3l1.7,1.4c2.3,1.9,4.8,4,7.4,6.4c1.3,1.2,2.7,2.4,4,3.7l4.1,4.1
							c6,6.1,11.5,12.7,16.6,19.6c5,7,9.5,14.3,13.5,21.9l2.6,5.2c0.8,1.7,1.5,3.4,2.2,5c1.5,3.2,2.6,6.3,3.6,9.1
							c0.3,0.7,0.5,1.4,0.8,2l0.7,2c0.4,1.3,0.8,2.5,1.2,3.6c0.8,2.2,1.3,4.2,1.7,5.8c0.4,1.6,0.8,2.8,1,3.7c0.1,0.4,0.2,0.7,0.2,1
							C81.1,107.2,81.2,107.3,81.2,107.4z"/>
					</g>
					<g id="Group_735" transform="translate(378.732 283.876)">
						<path id="Path_18738" fill="#3E70AB" d="M38.3,183.7c-0.1-0.1-0.1-0.2-0.2-0.3c-0.1-0.2-0.3-0.5-0.5-1l-1.8-3.7l-6.7-14
							c-5.7-12-13.7-28.9-23-48.5L6.1,116l0.2-0.1c8.7-6.6,16.9-13.8,24.6-21.7c1.3-1.3,2.6-2.7,3.8-4l3.7-4l3.5-4.1
							c1.1-1.4,2.3-2.7,3.4-4.1c2.1-2.8,4.3-5.4,6.2-8.2c1-1.4,2-2.7,2.9-4c0.9-1.4,1.8-2.7,2.7-4.1c6.3-9.5,11.8-19.5,16.6-29.8
							c2.1-4.4,3.7-8.5,5.1-12.1c1.4-3.6,2.5-6.8,3.4-9.3c0.8-2.6,1.5-4.6,1.9-6c0.2-0.7,0.4-1.2,0.5-1.5c0.1-0.3,0.2-0.5,0.2-0.5
							s0,0.2-0.1,0.5c-0.1,0.4-0.3,0.9-0.5,1.6c-0.4,1.4-1,3.4-1.8,6c-0.9,2.6-2,5.7-3.3,9.4c-1.4,3.6-3,7.7-5.1,12.1
							C69.3,42.4,63.7,52.5,57.5,62c-0.9,1.3-1.8,2.7-2.7,4.1l-2.9,4.1c-1.9,2.8-4.1,5.4-6.2,8.2c-1.1,1.4-2.2,2.7-3.4,4.1l-3.5,4.1
							l-3.7,4c-1.2,1.4-2.5,2.7-3.8,4c-7.7,7.8-15.9,15.1-24.6,21.7l0.1-0.3l22.8,48.6c2.8,6,5,10.8,6.6,14.1l1.7,3.8l0.4,1
							C38.3,183.4,38.3,183.5,38.3,183.7z"/>
					</g>
				</g>
			</g>
			<g id="Group_797" transform="translate(0 2.161)">
				<circle id="Ellipse_222" fill="#3E70AB" cx="348.6" cy="136.5" r="4.8"/>
				<path id="Path_18739" fill="#3E70AB" d="M324.1,44.6c0,2.7-2.2,4.9-4.8,4.9c-2.7,0-4.9-2.2-4.9-4.8c0-2.7,2.2-4.9,4.8-4.9
					c0,0,0,0,0,0C322,39.7,324.1,41.9,324.1,44.6z"/>
				<path id="Path_18740" fill="#3E70AB" d="M469.3,151.9c0,2.7-2.2,4.8-4.9,4.8s-4.9-2.2-4.9-4.9c0-2.7,2.2-4.8,4.9-4.8
					c0,0,0,0,0,0C467.1,147,469.3,149.2,469.3,151.9C469.3,151.9,469.3,151.9,469.3,151.9z"/>
				<path id="Path_18741" fill="#3E70AB" d="M218.5,378.6c0,2.7-2.2,4.9-4.9,4.9c-2.7,0-4.8-2.2-4.8-4.9c0-2.7,2.2-4.9,4.8-4.9
					C216.3,373.8,218.5,376,218.5,378.6z"/>
				<circle id="Ellipse_223" fill="#3E70AB" cx="151.6" cy="375.1" r="4.8"/>
				<circle id="Ellipse_224" fill="#3E70AB" cx="417.5" cy="273" r="4.8"/>
				<path id="Path_18742" fill="#3E70AB" d="M58.7,154.4c0,2.7-2.2,4.9-4.8,4.9s-4.9-2.2-4.9-4.8c0-2.7,2.2-4.9,4.8-4.9c0,0,0,0,0,0
					C56.5,149.5,58.7,151.7,58.7,154.4z"/>
				<path id="Path_18743" fill="#3E70AB" d="M330.9,193.1c0,2.7-2.2,4.8-4.9,4.8s-4.9-2.2-4.9-4.9c0-2.7,2.2-4.8,4.9-4.8
					S330.9,190.5,330.9,193.1L330.9,193.1z"/>
				<circle id="Ellipse_225" fill="#3E70AB" cx="424.7" cy="191.2" r="4.8"/>
				<path id="Path_18744" fill="#3E70AB" d="M111.3,172.7c0,2.7-2.2,4.8-4.9,4.8s-4.8-2.2-4.8-4.9c0-2.7,2.2-4.8,4.8-4.8
					C109.1,167.9,111.3,170,111.3,172.7C111.3,172.7,111.3,172.7,111.3,172.7z"/>
				<circle id="Ellipse_226" fill="#3E70AB" cx="110.2" cy="108.5" r="4.8"/>
				<path id="Path_18745" fill="#3E70AB" d="M60.6,292.2c0,1.3-1.1,2.4-2.4,2.4s-2.4-1.1-2.4-2.4s1.1-2.4,2.4-2.4h0
					C59.5,289.8,60.6,290.8,60.6,292.2z"/>
				<path id="Path_18746" fill="#3E70AB" d="M101.6,221.8c0,1.3-1.1,2.4-2.4,2.4c-1.3,0-2.4-1.1-2.4-2.4c0-1.3,1.1-2.4,2.4-2.4
					C100.5,219.4,101.6,220.5,101.6,221.8C101.6,221.8,101.6,221.8,101.6,221.8z"/>
				<path id="Path_18747" fill="#3E70AB" d="M148.7,306.9c0,1.3-1.1,2.4-2.4,2.4s-2.4-1.1-2.4-2.4c0-1.3,1.1-2.4,2.4-2.4
					c0,0,0,0,0,0C147.6,304.4,148.7,305.5,148.7,306.9z"/>
				<path id="Path_18748" fill="#3E70AB" d="M123.9,220.7c0,1.3-1.1,2.4-2.4,2.4c-1.3,0-2.4-1.1-2.4-2.4c0-1.3,1.1-2.4,2.4-2.4
					C122.8,218.3,123.9,219.4,123.9,220.7C123.9,220.7,123.9,220.7,123.9,220.7z"/>
				<path id="Path_18749" fill="#3E70AB" d="M158.6,166.1c0,1.3-1.1,2.4-2.4,2.4c-1.3,0-2.4-1.1-2.4-2.4c0-1.3,1.1-2.4,2.4-2.4
					S158.6,164.8,158.6,166.1L158.6,166.1z"/>
				<circle id="Ellipse_227" fill="#3E70AB" cx="72.4" cy="221.8" r="2.4"/>
				<path id="Path_18750" fill="#3E70AB" d="M398.1,317.5c0,1.3-1.1,2.4-2.4,2.4s-2.4-1.1-2.4-2.4s1.1-2.4,2.4-2.4h0
					C397,315.1,398.1,316.2,398.1,317.5C398.1,317.5,398.1,317.5,398.1,317.5z"/>
				<path id="Path_18751" fill="#3E70AB" d="M381.2,304.8c0,1.3-1.1,2.4-2.4,2.4s-2.4-1.1-2.4-2.4s1.1-2.4,2.4-2.4c0,0,0,0,0,0
					C380.1,302.4,381.2,303.5,381.2,304.8C381.2,304.8,381.2,304.8,381.2,304.8z"/>
				<path id="Path_18752" fill="#3E70AB" d="M416.2,329c0,1.3-1.1,2.4-2.4,2.4s-2.4-1.1-2.4-2.4s1.1-2.4,2.4-2.4c0,0,0,0,0,0
					C415.1,326.5,416.2,327.6,416.2,329C416.2,329,416.2,329,416.2,329z"/>
				<path id="Path_18753" fill="#3E70AB" d="M320.7,331.2c0,1.3-1.1,2.4-2.4,2.4s-2.4-1.1-2.4-2.4s1.1-2.4,2.4-2.4c0,0,0,0,0,0
					C319.6,328.8,320.7,329.9,320.7,331.2z"/>
				<path id="Path_18754" fill="#3E70AB" d="M336,368.5c0,1.3-1.1,2.4-2.4,2.4s-2.4-1.1-2.4-2.4s1.1-2.4,2.4-2.4h0
					C335,366.1,336,367.2,336,368.5z"/>
				<path id="Path_18755" fill="#3E70AB" d="M309.2,357.2c0,1.3-1.1,2.4-2.4,2.4s-2.4-1.1-2.4-2.4s1.1-2.4,2.4-2.4h0
					C308.1,354.8,309.2,355.9,309.2,357.2z"/>
				<path id="Path_18756" fill="#3E70AB" d="M152.2,139c0,1.3-1.1,2.4-2.4,2.4c-1.3,0-2.4-1.1-2.4-2.4c0-1.3,1.1-2.4,2.4-2.4
					C151.1,136.5,152.2,137.6,152.2,139C152.2,139,152.2,139,152.2,139z"/>
				<path id="Path_18757" fill="#3E70AB" d="M209.5,110.8c0,1.3-1.1,2.4-2.4,2.4c-1.3,0-2.4-1.1-2.4-2.4c0-1.3,1.1-2.4,2.4-2.4
					C208.4,108.4,209.5,109.4,209.5,110.8C209.5,110.8,209.5,110.8,209.5,110.8z"/>
				<path id="Path_18758" fill="#3E70AB" d="M280.5,104.1c0,1.3-1.1,2.4-2.4,2.4s-2.4-1.1-2.4-2.4c0-1.3,1.1-2.4,2.4-2.4
					c0,0,0,0,0,0C279.4,101.7,280.5,102.8,280.5,104.1z"/>
				<path id="Path_18759" fill="#3E70AB" d="M392.1,45.9c0,1.3-1.1,2.4-2.4,2.4c-1.3,0-2.4-1.1-2.4-2.4c0-1.3,1.1-2.4,2.4-2.4
					c0,0,0,0,0,0C391,43.5,392.1,44.6,392.1,45.9C392.1,45.9,392.1,45.9,392.1,45.9z"/>
				<path id="Path_18760" fill="#3E70AB" d="M205.7,42c0,1.3-1.1,2.4-2.4,2.4c-1.3,0-2.4-1.1-2.4-2.4c0-1.3,1.1-2.4,2.4-2.4
					c0,0,0,0,0,0C204.6,39.6,205.7,40.7,205.7,42z"/>
				<g id="Group_738" transform="translate(135.628 164.554)">
					<path id="Path_18761" fill="#3E70AB" d="M42.3,144.5c-0.1-0.1-0.2-0.2-0.3-0.3l-0.8-0.9l-3-3.3c-0.6-0.7-1.4-1.5-2.2-2.4
						s-1.6-1.9-2.4-3s-1.8-2.2-2.8-3.5l-2.9-4c-4.7-6.7-8.8-13.8-12.1-21.3C11.8,96.6,9,87,7.4,77.1c-0.5-2.6-0.7-5.3-1-7.8
						c-0.1-1.3-0.2-2.6-0.2-3.9c0-0.6-0.1-1.3-0.1-1.9c0-0.6,0-1.3,0-1.9c0-1.3,0-2.5,0-3.7l0.1-3.7c0-1.2,0.1-2.4,0.2-3.6
						s0.2-2.3,0.3-3.5c0.9-8.1,2.5-16.2,5-24c1.6-5.3,3.6-10.4,6-15.4c0.9-1.8,1.6-3.1,2.1-4c0.2-0.4,0.5-0.8,0.6-1
						c0.1-0.1,0.1-0.2,0.2-0.3c0,0.1-0.1,0.2-0.2,0.4l-0.5,1c-0.5,0.9-1.1,2.3-2,4c-2.3,5-4.2,10.1-5.8,15.4
						c-2.4,7.8-4,15.8-4.8,23.9c-0.1,1.1-0.2,2.3-0.3,3.5c-0.1,1.2-0.2,2.4-0.2,3.6c0,1.2-0.1,2.4-0.1,3.6c0,1.2,0,2.5,0,3.7
						c0,0.6,0,1.3,0,1.9c0,0.6,0.1,1.3,0.1,1.9C6.9,66.6,7,67.9,7,69.2c0.3,2.6,0.5,5.2,1,7.8c1.5,9.9,4.3,19.5,8.4,28.6
						c3.3,7.4,7.3,14.6,12,21.2l2.9,4.1c0.9,1.3,1.9,2.4,2.7,3.5l2.4,3c0.7,0.9,1.5,1.7,2.1,2.5l2.9,3.4l0.8,0.9
						C42.2,144.2,42.3,144.3,42.3,144.5z"/>
				</g>
				<g id="Group_739" transform="translate(66.224 106.003)">
					<path id="Path_18762" fill="#3E70AB" d="M6.1,121.9c0-0.1,0-0.2,0-0.3c0-0.2,0-0.6,0-1c0-0.9,0-2.1,0.1-3.7
						c0-0.8,0-1.7,0.1-2.7c0-1,0.1-2,0.2-3.2c0.2-2.3,0.3-4.9,0.6-7.7c0.2-1.4,0.3-2.9,0.5-4.5c0.2-1.6,0.4-3.2,0.7-4.8
						C8.6,90.6,9.3,87,10,83.3c3.2-16.2,8.2-32,15-47.1c1.6-3.4,3.1-6.7,4.7-9.7c0.8-1.5,1.5-3,2.3-4.3l2.2-3.9
						c1.4-2.5,2.8-4.7,4-6.7c0.6-1,1.1-1.9,1.7-2.7l1.5-2.2c0.9-1.3,1.6-2.3,2.1-3.1c0.2-0.3,0.4-0.6,0.6-0.8
						c0.1-0.1,0.1-0.2,0.2-0.3c0,0.1-0.1,0.2-0.2,0.3l-0.5,0.8c-0.5,0.8-1.1,1.8-2,3.1L39.9,9l-1.6,2.7c-1.2,2-2.5,4.2-3.9,6.7
						c-0.7,1.3-1.4,2.6-2.2,4c-0.7,1.4-1.4,2.9-2.2,4.4c-1.6,3-3,6.3-4.6,9.7c-6.7,15.1-11.7,30.8-14.9,47C9.8,87.1,9.1,90.7,8.7,94
						c-0.2,1.7-0.5,3.3-0.7,4.8l-0.5,4.5c-0.4,2.8-0.5,5.4-0.7,7.7c-0.1,1.1-0.2,2.2-0.2,3.2c0,1-0.1,1.9-0.1,2.7
						c-0.1,1.6-0.1,2.8-0.2,3.7c0,0.4,0,0.7-0.1,1C6.1,121.7,6.1,121.8,6.1,121.9z"/>
				</g>
				<g id="Group_740" transform="translate(212.712 78.12)">
					<path id="Path_18763" fill="#3E70AB" d="M91,10c-0.3,0-0.6-0.1-0.9-0.2L87.7,9c-1-0.3-2.3-0.7-3.8-1.1
						c-1.5-0.4-3.2-0.9-5.1-1.3l-3-0.7c-1-0.2-2.1-0.4-3.3-0.6c-2.3-0.5-4.7-0.8-7.3-1.1C54.1,2.6,42.8,2.7,31.7,4.3
						c-2.6,0.4-5,0.8-7.2,1.3c-1.1,0.2-2.2,0.4-3.3,0.7l-3,0.7c-1.9,0.4-3.6,1-5.1,1.4c-1.5,0.4-2.8,0.8-3.8,1.2l-2.4,0.8
						c-0.3,0.1-0.6,0.2-0.9,0.2c0.3-0.1,0.5-0.3,0.8-0.3l2.4-0.9c1-0.4,2.3-0.8,3.8-1.3c1.5-0.4,3.2-1,5.1-1.5l3-0.8
						c1-0.3,2.1-0.5,3.3-0.7c2.3-0.5,4.7-0.9,7.3-1.3C42.8,2.1,54.1,2,65.3,3.5c2.6,0.4,5,0.7,7.3,1.2c1.1,0.2,2.2,0.4,3.3,0.7
						l3,0.7c1.9,0.4,3.6,1,5.1,1.4s2.8,0.9,3.8,1.2l2.4,0.9C90.5,9.7,90.7,9.8,91,10z"/>
				</g>
				<g id="Group_741" transform="translate(271.429 101.514)">
					<path id="Path_18764" fill="#3E70AB" d="M76.4,38c-0.2-0.2-0.4-0.4-0.6-0.6l-1.5-1.8l-1.1-1.3c-0.4-0.5-0.9-1-1.4-1.5
						c-1-1.1-2.1-2.3-3.5-3.6l-2.1-2c-0.7-0.7-1.5-1.3-2.4-2.1c-1.6-1.5-3.5-2.8-5.4-4.3C50,14.6,40.5,9.8,30.4,6.7
						c-2.3-0.7-4.5-1.3-6.7-1.8c-1.1-0.2-2.1-0.5-3.1-0.7l-2.8-0.5c-1.8-0.4-3.5-0.5-4.9-0.7c-0.7-0.1-1.4-0.2-2-0.2L9.2,2.8
						L6.9,2.6c-0.3,0-0.6,0-0.8-0.1c0.3,0,0.6,0,0.8,0l2.4,0.1L11,2.6c0.6,0,1.3,0.1,2,0.2C14.5,2.9,16.1,3,18,3.4l2.9,0.5
						c1,0.2,2,0.4,3.1,0.6c2.1,0.4,4.4,1.1,6.7,1.7c10.2,3.1,19.7,7.9,28.2,14.3c1.9,1.5,3.8,2.9,5.4,4.4c0.8,0.7,1.6,1.4,2.3,2.1
						l2.1,2c1.3,1.3,2.4,2.6,3.4,3.6c0.5,0.5,1,1,1.4,1.5l1.1,1.3c0.6,0.8,1.1,1.4,1.5,1.9C76.1,37.6,76.2,37.8,76.4,38z"/>
				</g>
				<g id="Group_742" transform="translate(257.541 60.326)">
					<path id="Path_18765" fill="#3E70AB" d="M114.4,48.5c-0.1-0.1-0.2-0.1-0.2-0.2c-0.2-0.2-0.4-0.4-0.7-0.6l-2.5-2.5l-1.8-1.8
						c-0.7-0.6-1.4-1.3-2.2-2c-1.6-1.4-3.4-3.2-5.6-4.8L98,33.8c-1.2-0.9-2.5-1.8-3.7-2.8c-2.6-2-5.5-3.8-8.5-5.8
						C72.5,17,57.9,10.8,42.6,7c-3.5-0.8-6.9-1.6-10-2.1C31,4.6,29.5,4.3,28,4.1l-4.3-0.5C21,3.2,18.6,3.1,16.4,3
						c-1.1-0.1-2.1-0.2-3-0.2l-2.5,0L7.3,2.6l-0.9,0c-0.1,0-0.2,0-0.3,0c0.1,0,0.2,0,0.3,0l0.9,0l3.5,0h2.6c0.9,0,1.9,0.1,3,0.2
						c2.2,0.1,4.7,0.2,7.4,0.6l4.3,0.5c1.5,0.2,3,0.5,4.6,0.7c3.2,0.5,6.6,1.3,10.1,2.1c15.3,3.7,30,9.9,43.3,18.4
						c3,2,5.9,3.8,8.5,5.8c1.3,1,2.6,1.9,3.7,2.8l3.3,2.7c2.2,1.7,3.9,3.5,5.5,4.9c0.8,0.7,1.6,1.4,2.2,2.1l1.8,1.8l2.4,2.6l0.6,0.7
						C114.3,48.4,114.4,48.4,114.4,48.5z"/>
				</g>
				<g id="Group_743" transform="translate(410.116 108.514)">
					<path id="Path_18766" fill="#3E70AB" d="M40.3,111.9c0-0.1,0-0.2,0-0.3l0-0.9c0-0.8,0-2-0.1-3.4c0-0.7,0-1.6,0-2.5
						c0-0.9-0.1-1.9-0.1-2.9c-0.1-2.1-0.2-4.5-0.4-7.1c-0.1-1.3-0.2-2.7-0.4-4.1s-0.4-2.9-0.5-4.5c-0.3-3.1-0.9-6.3-1.5-9.8
						c-2.7-14.9-7.2-29.4-13.5-43.2c-1.5-3.2-2.9-6.2-4.3-8.9c-0.7-1.4-1.4-2.7-2.1-4s-1.4-2.4-2.1-3.6c-1.3-2.3-2.6-4.3-3.7-6.1
						L10,8.3l-1.4-2C7.8,5.1,7.2,4.2,6.7,3.5C6.5,3.2,6.3,2.9,6.2,2.7C6.2,2.6,6.1,2.6,6.1,2.5c3.4,4.5,6.6,9.3,9.5,14.2
						c0.7,1.1,1.4,2.3,2.1,3.6c0.7,1.2,1.4,2.6,2.1,4c1.5,2.7,2.9,5.7,4.4,8.9C30.5,46.9,35,61.5,37.7,76.4c0.6,3.4,1.1,6.7,1.5,9.8
						c0.2,1.5,0.4,3,0.5,4.5s0.2,2.8,0.3,4.1C40.4,100.5,40.5,106.2,40.3,111.9z"/>
				</g>
				<g id="Group_744" transform="translate(327.554 188.71)">
					<path id="Path_18767" fill="#3E70AB" d="M98,2.5c0,0,0,0.2,0.1,0.5c0,0.4,0.1,0.9,0.2,1.6c0.1,1.4,0.5,3.5,0.7,6.2
						c0.6,7.6,0.8,15.2,0.5,22.9c-0.2,4.8-0.6,10.1-1.2,15.8c-0.8,5.6-1.6,11.7-3,17.9c-0.3,1.6-0.7,3.1-1.1,4.7
						c-0.4,1.6-0.8,3.2-1.2,4.8c-0.9,3.2-1.8,6.5-3,9.8c-2.3,6.8-5,13.5-8.3,19.8c-3.3,6.4-7.1,12.5-11.3,18.3
						c-3.9,5.4-8.1,10.6-12.6,15.6c-7.6,8.4-16,16-25,22.9c-6.1,4.6-12.4,8.8-19.1,12.6c-2.3,1.4-4.2,2.3-5.5,2.9l-1.4,0.7
						c-0.3,0.2-0.5,0.2-0.5,0.2s0.2-0.1,0.5-0.3l1.4-0.8c1.2-0.7,3.1-1.6,5.4-3c6.6-3.8,12.9-8.1,18.9-12.7
						c9-6.9,17.3-14.5,24.9-22.9c4.5-4.9,8.7-10.1,12.6-15.5c4.2-5.8,7.9-11.9,11.2-18.3c3.3-6.4,6.1-13,8.3-19.8
						c1.2-3.3,2.1-6.6,3-9.8c0.4-1.6,0.8-3.2,1.2-4.8c0.4-1.6,0.8-3.2,1.1-4.7c1.4-6.2,2.3-12.2,3-17.8c0.6-5.6,1.1-10.9,1.3-15.7
						c0.4-7.6,0.3-15.2-0.3-22.8c-0.1-2.7-0.4-4.8-0.5-6.2C98.1,3.9,98,3.4,98,3C98,2.7,98,2.5,98,2.5z"/>
				</g>
				<g id="Group_745" transform="translate(368.049 140.012)">
					<path id="Path_18768" fill="#3E70AB" d="M6.1,2.5c0.1,0.1,0.2,0.2,0.3,0.3c0.2,0.3,0.5,0.6,0.9,1C8,4.7,9.1,6,10.4,7.8
						c3.8,5,7.3,10.3,10.3,15.8c2,3.5,3.8,7.4,5.7,11.7c2,4.6,3.7,9.3,5.1,14.1c3.3,11,5.2,22.3,5.5,33.8c0.2,5.9-0.1,11.9-0.6,17.8
						c-0.6,5.5-1.5,10.9-2.8,16.3c-3.7,15.2-10.2,29.7-19.2,42.5c-1.2,1.9-2.4,3.2-3,4.1c-0.3,0.4-0.6,0.8-0.8,1.1
						c-0.1,0.1-0.2,0.2-0.3,0.3c0.1-0.1,0.2-0.3,0.2-0.4c0.2-0.3,0.4-0.6,0.8-1.1c0.7-1,1.7-2.3,2.9-4.2c3.5-5.2,6.7-10.6,9.5-16.3
						c4.1-8.4,7.3-17.2,9.4-26.2c1.2-5.4,2.2-10.8,2.8-16.2c0.6-5.9,0.8-11.8,0.6-17.7c-0.4-11.4-2.2-22.7-5.5-33.7
						c-1.4-4.8-3.1-9.5-5-14c-1.9-4.3-3.7-8.2-5.7-11.7C17.4,18.3,14,13,10.2,8C9,6.2,7.8,4.8,7.1,3.9L6.3,2.8
						C6.2,2.7,6.1,2.6,6.1,2.5z"/>
				</g>
				<g id="Group_746" transform="translate(103.95 331.184)">
					<path id="Path_18769" fill="#3E70AB" d="M222.1,74.6c0,0-0.2,0.1-0.6,0.1l-1.8,0.4c-1.6,0.3-3.9,0.8-6.9,1.3
						c-8.5,1.5-17.1,2.5-25.7,3.1c-12.8,0.9-25.6,0.9-38.3-0.1c-7.2-0.5-14.7-1.4-22.5-2.7c-8-1.3-16-3-23.8-5.1
						c-7.8-2.1-15.5-4.9-22.9-8.2c-6.9-3.1-13.5-6.8-19.9-10.9c-5.7-3.7-11.2-7.8-16.5-12.2c-5-4.1-9.4-8.1-13.3-11.9
						C22.1,21,16.2,14.4,12.2,9.7c-2-2.3-3.5-4.1-4.5-5.4C7.1,3.8,6.7,3.3,6.4,3C6.2,2.6,6.1,2.5,6.1,2.5s0.2,0.1,0.4,0.5l1.2,1.4
						c1.1,1.2,2.6,3,4.6,5.3c4.1,4.6,10,11.1,17.9,18.7c3.9,3.8,8.4,7.8,13.3,11.8c5.3,4.3,10.8,8.4,16.5,12.1
						c6.3,4.1,13,7.7,19.8,10.8c7.4,3.3,15,6.1,22.8,8.2c7.8,2.1,15.7,3.8,23.7,5.1c7.7,1.3,15.3,2.1,22.5,2.7
						c12.7,1,25.5,1.1,38.3,0.2c10.9-0.7,19.6-2,25.7-2.9c3-0.5,5.3-0.9,6.9-1.2l1.8-0.3C221.9,74.6,222.1,74.6,222.1,74.6z"/>
				</g>
				<g id="Group_747" transform="translate(159.729 351.216)">
					<path id="Path_18770" fill="#3E70AB" d="M103.8,35.5c-5.1,0.3-10.3,0.2-15.4-0.2L84.7,35c-1.3-0.1-2.6-0.3-4-0.5
						c-2.8-0.3-5.7-0.8-8.9-1.4c-13.5-2.5-26.5-7-38.8-13.1c-2.8-1.5-5.5-2.8-7.9-4.3c-1.2-0.7-2.4-1.4-3.5-2.1l-3.1-2
						C14.1,8.9,10,5.8,6.1,2.5c0.1,0,0.2,0.1,0.2,0.1l0.6,0.5l2.5,1.8l1.8,1.3c0.7,0.5,1.4,1,2.2,1.5c1.6,1.1,3.3,2.3,5.3,3.6l3.2,2
						c1.1,0.7,2.3,1.3,3.5,2c2.4,1.4,5.1,2.8,7.9,4.2C45.5,25.6,58.5,30,71.9,32.6c3.1,0.5,6,1.1,8.8,1.4c1.4,0.2,2.7,0.4,4,0.5
						l3.7,0.3c2.4,0.3,4.5,0.3,6.4,0.4c0.9,0,1.8,0.1,2.6,0.1l2.2,0l3.1,0l0.8,0C103.7,35.5,103.8,35.5,103.8,35.5z"/>
				</g>
				<g id="Group_748" transform="translate(139.635 302.136)">
					<path id="Path_18771" fill="#3E70AB" d="M85.5,54.6c-0.3,0-0.7-0.1-1-0.1L81.7,54l-2-0.4c-0.7-0.2-1.5-0.4-2.4-0.6
						c-1.7-0.4-3.7-0.8-5.8-1.5l-3.3-1c-1.2-0.4-2.3-0.8-3.5-1.3c-2.5-0.8-5-2-7.7-3.1c-11.6-5.2-22.3-12.2-31.7-20.8
						c-2.1-2-4.2-3.9-5.9-5.8c-0.9-1-1.8-1.8-2.6-2.8c-0.8-0.9-1.5-1.8-2.3-2.6c-1.5-1.7-2.6-3.3-3.7-4.7c-0.5-0.7-1-1.3-1.5-2
						L8.2,5.7C7.5,4.7,7,3.9,6.6,3.3C6.4,3,6.2,2.8,6.1,2.5C6.3,2.7,6.5,3,6.7,3.3c0.4,0.6,1,1.3,1.7,2.3c0.4,0.5,0.8,1.1,1.2,1.7
						c0.4,0.6,1,1.2,1.5,1.9c1.1,1.4,2.3,3,3.8,4.6l2.3,2.6c0.8,0.9,1.7,1.8,2.6,2.7c1.8,1.9,3.8,3.8,5.9,5.8
						c9.4,8.5,20,15.5,31.6,20.7c2.7,1.2,5.2,2.3,7.7,3.1c1.2,0.4,2.4,0.9,3.5,1.3l3.3,1c2.1,0.7,4,1.2,5.7,1.6
						c0.8,0.2,1.6,0.4,2.4,0.6c0.7,0.2,1.4,0.3,2,0.4l2.8,0.6C84.8,54.4,85.1,54.5,85.5,54.6z"/>
				</g>
				<g id="Group_749" transform="translate(129.909 395.23)">
					<path id="Path_18772" fill="#3E70AB" d="M138.7,42.9c-0.1,0-0.2,0-0.4,0.1l-1.1,0.1l-4.1,0.3l-3,0.2c-1.1,0.1-2.3,0.1-3.6,0.1
						c-2.6,0-5.5,0.2-8.7,0l-5.1-0.1c-1.8-0.1-3.6-0.3-5.5-0.4c-3.8-0.2-7.8-0.8-12-1.3c-18.3-2.7-36.1-8.1-52.8-16.1
						c-3.8-1.9-7.5-3.7-10.7-5.6c-1.6-0.9-3.3-1.8-4.8-2.7l-4.3-2.7c-2.8-1.7-5.1-3.4-7.2-4.9c-1-0.7-2-1.4-2.9-2.1
						c-0.9-0.7-1.6-1.3-2.4-1.9L7.2,3.4L6.3,2.7C6.2,2.6,6.1,2.6,6.1,2.5c0.1,0.1,0.2,0.1,0.3,0.2l0.9,0.6l3.3,2.5l2.4,1.8
						c0.9,0.6,1.9,1.3,2.9,2c2.1,1.4,4.5,3.2,7.2,4.8l4.3,2.7c1.5,0.9,3.1,1.8,4.8,2.7c3.3,1.9,6.9,3.6,10.7,5.5
						c16.7,7.9,34.4,13.3,52.6,16c4.2,0.5,8.2,1.1,12,1.4c1.9,0.1,3.7,0.4,5.4,0.4l5,0.2c3.2,0.2,6.1,0.1,8.7,0.1c1.3,0,2.5,0,3.6,0
						l3-0.2l4.1-0.2l1.1,0C138.5,42.9,138.6,42.9,138.7,42.9z"/>
				</g>
				<g id="Group_750" transform="translate(52.637 151.91)">
					<path id="Path_18773" fill="#3E70AB" d="M53.8,20.8c-0.1,0.2-10.8-3.8-24-8.9S6,2.6,6.1,2.5s10.8,3.8,24,8.9
						S53.9,20.6,53.8,20.8z"/>
				</g>
				<g id="Group_751" transform="translate(66.433 135.413)">
					<path id="Path_18774" fill="#3E70AB" d="M84.1,2.5C84,2.6,84,2.7,83.9,2.8l-0.7,0.8c-0.6,0.7-1.6,1.7-2.7,3.1
						c-3.3,3.8-6.2,7.9-8.8,12.2C67.9,25.2,64.8,32,62.5,39c-2.9,8.6-4.8,17.6-5.9,26.6c-0.8,6.9-1.1,13.8-0.8,20.8l0,0.3h-0.3
						L20,86.6L9.7,86.5l-2.7,0l-0.7,0c-0.1,0-0.2,0-0.2,0c0.1,0,0.2,0,0.2,0l0.7,0l2.7,0L20,86.2l35.5-0.1l-0.3,0.3
						c-0.3-7,0-14,0.8-20.9c1.1-9.1,3-18,5.9-26.7c2.4-7.1,5.5-13.9,9.4-20.3c2.6-4.3,5.6-8.4,8.9-12.1c1.1-1.4,2.2-2.3,2.8-3
						l0.8-0.8C83.9,2.6,84,2.5,84.1,2.5z"/>
				</g>
				<line id="Line_367" fill="none" stroke="#3E70AB" x1="102.1" y1="247.3" x2="145.7" y2="240.5"/>
				<g id="Group_752" transform="translate(142.588 308.164)">
					<path id="Path_18775" fill="#3E70AB" d="M33.8,2.5c-0.3,0.4-0.6,0.8-0.9,1.2c-0.6,0.7-1.6,1.8-2.7,3.1
						c-2.3,2.6-5.7,6.1-9.5,9.7s-7.5,6.9-10.1,9.1c-1.3,1.1-2.4,2-3.2,2.6c-0.4,0.3-0.8,0.6-1.2,0.9c0.3-0.4,0.7-0.7,1.1-1.1
						l3.1-2.7c2.6-2.3,6.2-5.5,10-9.2s7.2-7.1,9.6-9.6l2.9-3C33,3.1,33.4,2.8,33.8,2.5z"/>
				</g>
				<g id="Group_753" transform="translate(130.904 348.609)">
					<path id="Path_18776" fill="#3E70AB" d="M35.7,2.5c0.1,0.1-6.4,10.8-14.6,24S6.2,50.2,6.1,50.1s6.4-10.8,14.6-24
						S35.6,2.4,35.7,2.5z"/>
				</g>
				<g id="Group_754" transform="translate(199.913 356.429)">
					<path id="Path_18777" fill="#3E70AB" d="M21.3,2.5C21.2,3,21,3.6,20.8,4.2c-0.4,1.2-1,2.7-1.7,4.6c-1.5,3.9-3.5,9.2-5.6,15.1
						S9.5,35.2,8.2,39.1l-1.5,4.6c-0.2,0.6-0.4,1.1-0.6,1.7c0.1-0.6,0.2-1.2,0.4-1.7C6.8,42.6,7.2,41,7.8,39c1.2-4,2.9-9.4,5-15.3
						s4.2-11.3,5.7-15.1c0.8-1.9,1.4-3.5,1.9-4.5C20.8,3.5,21,3,21.3,2.5z"/>
				</g>
				<g id="Group_755" transform="translate(300.517 354.441)">
					<path id="Path_18778" fill="#3E70AB" d="M20.6,52.3c-0.1-0.2-0.2-0.3-0.2-0.5c-0.1-0.4-0.3-0.9-0.5-1.4l-1.6-5.3
						C16.9,40.6,15,34.4,13,27.5S9.3,14.4,8,9.8c-0.6-2.2-1.1-4-1.5-5.4C6.4,3.9,6.3,3.4,6.2,3C6.1,2.8,6.1,2.6,6.1,2.5
						C6.2,2.6,6.2,2.8,6.3,3l0.5,1.4c0.4,1.3,1,3.1,1.6,5.3c1.4,4.5,3.2,10.7,5.2,17.6s3.8,13.1,5,17.6c0.6,2.2,1.1,4,1.5,5.4
						c0.1,0.6,0.3,1.1,0.4,1.5C20.5,52,20.6,52.1,20.6,52.3z"/>
				</g>
				<g id="Group_756" transform="translate(312.209 327.286)">
					<path id="Path_18779" fill="#3E70AB" d="M20.4,40.1c-0.2,0.1-3.5-8.3-7.4-18.7S5.9,2.5,6.1,2.5s3.5,8.3,7.5,18.7
						S20.6,40.1,20.4,40.1z"/>
				</g>
				<g id="Group_757" transform="translate(371.775 302.181)">
					<path id="Path_18780" fill="#3E70AB" d="M42.1,26.3c-0.5-0.2-1.1-0.4-1.6-0.7c-1-0.5-2.4-1.2-4.1-2.1
						c-3.5-1.8-8.2-4.5-13.2-7.8s-9.3-6.6-12.3-9.1c-1.5-1.2-2.7-2.3-3.5-3C6.8,3.3,6.4,2.9,6.1,2.5c0.5,0.3,1,0.6,1.4,1l3.7,2.9
						c3.1,2.4,7.4,5.6,12.4,8.9s9.7,6,13.1,7.9l4.1,2.2C41.1,25.7,41.6,26,42.1,26.3z"/>
				</g>
				<g id="Group_758" transform="translate(408.471 269.916)">
					<path id="Path_18781" fill="#3E70AB" d="M57.9,15.3c0,0.2-11.7-2.6-26-6.1S6,2.6,6.1,2.5s11.7,2.6,26,6.1S58,15.2,57.9,15.3z"
						/>
				</g>
				<g id="Group_759" transform="translate(401.394 218.516)">
					<path id="Path_18782" fill="#3E70AB" d="M51.5,2.6c0,0.2-10.2,0.4-22.7,0.6S6.1,3.3,6.1,3.1s10.2-0.4,22.7-0.6
						S51.5,2.4,51.5,2.6z"/>
				</g>
				<g id="Group_760" transform="translate(320.011 188.535)">
					<path id="Path_18783" fill="#3E70AB" d="M104.7,2.5c0,0.2-22.1,0.7-49.3,1.2S6.1,4.4,6.1,4.2s22.1-0.7,49.3-1.2
						S104.7,2.4,104.7,2.5z"/>
				</g>
				<g id="Group_761" transform="translate(410.055 149.206)">
					<path id="Path_18784" fill="#3E70AB" d="M54.8,2.5c-0.2,0.1-0.3,0.2-0.5,0.2l-1.4,0.5l-5.3,1.9C43.2,6.7,37,8.9,30.3,11.5
						s-12.8,5-17.1,6.8L8,20.4L6.6,21c-0.2,0.1-0.3,0.1-0.5,0.2c0.1-0.1,0.3-0.2,0.5-0.3l1.4-0.7c1.2-0.6,2.9-1.4,5.1-2.3
						c4.3-1.9,10.4-4.4,17.1-7S43,6.2,47.5,4.7C49.7,4,51.5,3.4,52.8,3l1.5-0.4C54.4,2.5,54.6,2.5,54.8,2.5z"/>
				</g>
				<g id="Group_762" transform="translate(342.56 106.222)">
					<path id="Path_18785" fill="#3E70AB" d="M35.7,2.5c0.1,0.1-6.4,6.1-14.6,13.3s-14.9,13-15,12.8s6.4-6.1,14.6-13.3
						S35.6,2.3,35.7,2.5z"/>
				</g>
				<g id="Group_763" transform="translate(352.56 44.014)">
					<path id="Path_18786" fill="#3E70AB" d="M36.1,2.5c0.1,0.1-6.5,9.6-14.8,21.3S6.2,44.7,6.1,44.7s6.5-9.6,14.8-21.3
						S36,2.4,36.1,2.5z"/>
				</g>
				<g id="Group_764" transform="translate(255.505 3.517)">
					<path id="Path_18787" fill="#3E70AB" d="M7.2,56.9c0-0.2,0-0.4,0-0.6c0-0.4,0-1,0.1-1.6c0.1-1.5,0.1-3.4,0.3-5.8
						C7.7,44,7.9,37.2,7.7,29.6s-0.6-14.3-1-19.2C6.5,8,6.3,6.1,6.2,4.6L6.1,3c0-0.2,0-0.4,0-0.6C6.2,2.6,6.2,2.8,6.2,3
						C6.3,3.4,6.4,4,6.4,4.6c0.2,1.4,0.4,3.3,0.7,5.8c0.5,4.9,1,11.7,1.2,19.2S8.3,44,8,48.9c-0.1,2.5-0.3,4.5-0.4,5.8
						c-0.1,0.6-0.1,1.2-0.2,1.6C7.3,56.5,7.3,56.7,7.2,56.9z"/>
				</g>
				<g id="Group_765" transform="translate(182.377 74.817)">
					<path id="Path_18788" fill="#3E70AB" d="M24.4,35.8c-0.3-0.4-0.6-0.8-0.9-1.2c-0.6-0.8-1.3-2-2.3-3.4c-1.9-2.9-4.3-7-6.9-11.6
						s-4.7-8.9-6.1-12C7.5,6,7,4.8,6.6,3.9C6.4,3.4,6.2,3,6.1,2.5c0.3,0.4,0.5,0.8,0.7,1.3l1.8,3.6c1.5,3.1,3.7,7.3,6.2,11.9
						S19.8,28,21.6,31c0.8,1.4,1.5,2.6,2.1,3.5C24,34.9,24.2,35.3,24.4,35.8z"/>
				</g>
				<g id="Group_780" transform="translate(446.266 72.525)">
					<g id="Group_779" transform="translate(12.047 20.625)">
						<path id="Path_18799" fill="#3E70AB" d="M6.4,2.5c0.2,0,0.3,12,0.3,26.8S6.5,56.2,6.4,56.2s-0.3-12-0.3-26.8S6.2,2.5,6.4,2.5z
							"/>
					</g>
				</g>
				<g id="Group_795" transform="translate(302.515 20.716)">
					<path id="Path_18810" fill="#3E70AB" d="M6.1,65.1c0-0.2,0.1-0.4,0.2-0.6l0.5-1.8c0.5-1.6,1.2-3.9,2-6.6
						c1.7-5.6,3.8-13.3,5.8-21.9c1-4.2,1.8-8.1,2.5-11.8v0.1c-0.1-5.8-0.2-10.8-0.3-14.4c0-1.7,0-3.1,0-4.1c0-0.5,0-1,0-1.5
						c0.1,0.5,0.1,1,0.1,1.5c0,1,0.1,2.4,0.2,4.1c0.1,3.6,0.3,8.6,0.5,14.4v0l0,0c-0.7,3.7-1.5,7.6-2.4,11.8c-2,8.6-4.2,16.4-6,21.9
						c-0.9,2.8-1.6,5-2.2,6.5l-0.7,1.8C6.3,64.7,6.2,64.9,6.1,65.1z"/>
				</g>
			</g>
		</g>
	</g>
</g>
</svg>
